<?xml version="1.0" encoding="utf-8"?>
<!-- Generator: Adobe Illustrator 16.0.0, SVG Export Plug-In . SVG Version: 6.00 Build 0)  -->
<!DOCTYPE svg PUBLIC "-//W3C//DTD SVG 1.1//EN" "http://www.w3.org/Graphics/SVG/1.1/DTD/svg11.dtd">
<svg version="1.1" id="Layer_1" xmlns="http://www.w3.org/2000/svg" xmlns:xlink="http://www.w3.org/1999/xlink" x="0px" y="0px"
	 width="284.742px" height="89.085px" viewBox="0 0 284.742 89.085" enable-background="new 0 0 284.742 89.085"
	 xml:space="preserve">
<g id="tagline_1_">
	<path fill="#008CBA" d="M106.608,71.957h1.431l-3.478,9.833h-1.435l-3.377-9.833h1.49l1.658,5.11
		c0.014,0.052,0.039,0.138,0.077,0.258c0.035,0.12,0.078,0.263,0.125,0.425c0.046,0.162,0.096,0.339,0.148,0.529
		c0.054,0.191,0.107,0.38,0.157,0.563c0.122,0.446,0.256,0.931,0.404,1.456h0.076c0.173-0.543,0.33-1.039,0.474-1.49
		c0.061-0.19,0.121-0.38,0.182-0.57c0.06-0.191,0.115-0.368,0.167-0.531c0.05-0.161,0.095-0.3,0.133-0.417
		c0.035-0.116,0.062-0.196,0.076-0.243L106.608,71.957z"/>
	<path fill="#008CBA" d="M112.268,81.79v-9.833h1.366v9.833H112.268z"/>
	<path fill="#008CBA" d="M119.14,81.79v-9.833h3.015c0.425,0,0.845,0.041,1.252,0.125c0.41,0.082,0.772,0.225,1.091,0.424
		c0.317,0.199,0.576,0.465,0.769,0.792c0.196,0.331,0.294,0.739,0.294,1.226c0,0.316-0.041,0.601-0.126,0.854
		c-0.083,0.252-0.204,0.48-0.359,0.682s-0.343,0.376-0.567,0.525c-0.222,0.148-0.473,0.275-0.752,0.383
		c0.372,0.086,0.665,0.2,0.882,0.338c0.215,0.138,0.384,0.305,0.508,0.502s0.211,0.424,0.264,0.683
		c0.054,0.258,0.104,0.55,0.151,0.879c0.046,0.327,0.103,0.692,0.167,1.093c0.065,0.402,0.173,0.846,0.32,1.329h-1.462
		c-0.099-0.507-0.174-0.964-0.227-1.37c-0.054-0.405-0.107-0.765-0.164-1.079c-0.056-0.313-0.122-0.582-0.199-0.808
		c-0.076-0.225-0.187-0.409-0.331-0.553c-0.143-0.145-0.329-0.25-0.556-0.318c-0.229-0.066-0.52-0.1-0.877-0.1h-1.728v4.228H119.14z
		 M120.496,76.525h1.617c0.283,0,0.548-0.033,0.794-0.098c0.247-0.064,0.46-0.17,0.644-0.313s0.328-0.331,0.433-0.566
		c0.104-0.233,0.156-0.521,0.156-0.858c0-0.352-0.067-0.63-0.202-0.834c-0.134-0.204-0.31-0.357-0.521-0.461
		c-0.215-0.105-0.452-0.169-0.714-0.195c-0.263-0.026-0.52-0.039-0.77-0.039h-1.437V76.525z"/>
	<path fill="#008CBA" d="M134.011,81.79h-1.358v-8.616h-3.052v-1.217h7.46v1.217h-3.05V81.79z"/>
	<path fill="#008CBA" d="M148.966,71.957v6.183c0,0.576-0.09,1.101-0.274,1.571c-0.184,0.471-0.442,0.873-0.778,1.209
		c-0.333,0.332-0.732,0.592-1.2,0.775c-0.467,0.183-0.979,0.275-1.542,0.275c-0.561,0-1.076-0.082-1.542-0.248
		c-0.467-0.165-0.87-0.408-1.204-0.73c-0.337-0.322-0.599-0.727-0.783-1.213c-0.187-0.484-0.279-1.047-0.279-1.688v-6.135h1.364
		v6.223c0,0.517,0.074,0.941,0.219,1.275c0.146,0.335,0.338,0.598,0.572,0.787c0.235,0.191,0.499,0.324,0.796,0.398
		c0.295,0.075,0.592,0.111,0.889,0.111c0.354,0,0.658-0.042,0.914-0.121c0.256-0.082,0.475-0.189,0.654-0.325
		c0.182-0.136,0.328-0.292,0.44-0.47c0.11-0.18,0.198-0.365,0.262-0.559c0.062-0.193,0.104-0.387,0.125-0.581
		c0.021-0.196,0.032-0.38,0.032-0.551v-6.188H148.966z"/>
	<path fill="#008CBA" d="M153.046,81.344l3.718-9.387h1.343l3.67,9.422v0.411h-1.314l-1.059-2.758h-4.061l-1.073,2.758h-1.224
		V81.344z M156.721,75.327l-0.927,2.508h3.169l-0.905-2.508l-0.661-1.881L156.721,75.327z"/>
	<path fill="#008CBA" d="M166.106,81.79v-9.833h1.373v8.58h4.205v1.253H166.106z"/>
	<path fill="#008CBA" d="M181.415,81.344l3.72-9.387h1.344l3.669,9.422v0.411h-1.314l-1.059-2.758h-4.061l-1.073,2.758h-1.226
		V81.344z M185.092,75.327l-0.927,2.508h3.169l-0.905-2.508l-0.661-1.881L185.092,75.327z"/>
	<path fill="#008CBA" d="M200.236,81.79h-5.759v-9.833h5.694v1.217h-4.329v2.919h4.087v1.219h-4.087v3.231h4.394V81.79z"/>
	<path fill="#008CBA" d="M207.342,80.752c0.381,0,0.709-0.042,0.987-0.126c0.274-0.083,0.503-0.198,0.681-0.345
		c0.179-0.146,0.312-0.317,0.399-0.515c0.083-0.197,0.127-0.413,0.127-0.644c0-0.232-0.039-0.436-0.119-0.609
		s-0.203-0.33-0.373-0.471c-0.17-0.139-0.39-0.271-0.66-0.396c-0.268-0.127-0.591-0.256-0.969-0.391
		c-0.49-0.177-0.907-0.362-1.243-0.561c-0.338-0.197-0.611-0.414-0.819-0.648c-0.212-0.233-0.359-0.492-0.451-0.772
		c-0.09-0.28-0.135-0.593-0.135-0.937c0-0.422,0.08-0.795,0.236-1.117c0.158-0.323,0.377-0.594,0.656-0.812
		c0.277-0.218,0.602-0.383,0.976-0.493c0.374-0.112,0.777-0.168,1.209-0.168c0.45,0,0.917,0.076,1.399,0.228
		c0.484,0.152,0.978,0.396,1.483,0.732l-0.536,1.018c-0.422-0.27-0.828-0.463-1.214-0.58c-0.39-0.119-0.758-0.18-1.106-0.18
		c-0.565,0-1.002,0.121-1.309,0.359c-0.306,0.238-0.459,0.568-0.459,0.992c0,0.236,0.033,0.439,0.098,0.605s0.172,0.316,0.32,0.448
		c0.147,0.133,0.342,0.253,0.579,0.36c0.239,0.111,0.535,0.225,0.887,0.346c0.617,0.209,1.113,0.42,1.489,0.633
		c0.374,0.215,0.666,0.438,0.869,0.668c0.204,0.234,0.339,0.481,0.406,0.745c0.067,0.265,0.101,0.557,0.101,0.876
		c0,0.459-0.078,0.873-0.231,1.239c-0.154,0.366-0.377,0.678-0.668,0.936c-0.292,0.259-0.65,0.454-1.074,0.593
		c-0.425,0.137-0.908,0.205-1.451,0.205c-0.424,0-0.876-0.066-1.358-0.197c-0.483-0.134-0.991-0.344-1.526-0.633l0.447-1.086
		c0.448,0.232,0.868,0.406,1.256,0.523C206.632,80.693,206.999,80.752,207.342,80.752z"/>
	<path fill="#008CBA" d="M219.061,81.79h-1.358v-8.616h-3.05v-1.217h7.458v1.217h-3.05V81.79z"/>
	<path fill="#008CBA" d="M233.737,81.79h-1.371v-4.457h-4.464v4.457h-1.371v-9.847h1.371v4.149h4.464v-4.149h1.371V81.79z"/>
	<path fill="#008CBA" d="M245.002,81.79h-5.76v-9.833h5.698v1.217h-4.333v2.919h4.087v1.219h-4.087v3.231h4.395V81.79z"/>
	<path fill="#008CBA" d="M253.349,81.79h-1.358v-8.616h-3.05v-1.217h7.457v1.217h-3.049V81.79z"/>
	<path fill="#008CBA" d="M260.819,81.79v-9.833h1.366v9.833H260.819z"/>
	<path fill="#008CBA" d="M274.452,81.141c-0.556,0.285-1.086,0.493-1.589,0.627c-0.502,0.135-0.974,0.203-1.42,0.203
		c-0.492,0-0.941-0.066-1.347-0.197c-0.406-0.134-0.771-0.316-1.091-0.549c-0.32-0.231-0.603-0.508-0.843-0.825
		c-0.241-0.317-0.439-0.663-0.597-1.034c-0.16-0.37-0.277-0.762-0.357-1.174c-0.078-0.409-0.118-0.823-0.118-1.242
		c0-0.433,0.04-0.861,0.123-1.285c0.079-0.426,0.201-0.828,0.364-1.215c0.163-0.385,0.365-0.742,0.611-1.073
		c0.242-0.329,0.525-0.614,0.844-0.855c0.322-0.242,0.68-0.431,1.076-0.567c0.397-0.139,0.833-0.206,1.307-0.206
		c0.319,0,0.63,0.038,0.93,0.112s0.579,0.193,0.839,0.357c0.261,0.163,0.493,0.379,0.7,0.646c0.206,0.268,0.373,0.592,0.496,0.973
		l-1.217,0.293c-0.07-0.227-0.165-0.416-0.282-0.564c-0.119-0.149-0.252-0.267-0.401-0.355c-0.147-0.088-0.312-0.15-0.491-0.188
		c-0.177-0.038-0.362-0.057-0.552-0.057c-0.47,0-0.885,0.111-1.245,0.328c-0.358,0.218-0.661,0.511-0.907,0.877
		c-0.247,0.366-0.433,0.79-0.559,1.27c-0.124,0.48-0.188,0.98-0.188,1.499c0,0.478,0.062,0.946,0.181,1.402
		c0.122,0.457,0.307,0.862,0.557,1.222c0.252,0.355,0.566,0.644,0.947,0.861c0.382,0.219,0.832,0.328,1.353,0.328
		c0.347,0,0.722-0.057,1.122-0.17c0.398-0.114,0.829-0.285,1.295-0.512L274.452,81.141z"/>
	<path fill="#008CBA" d="M281.231,80.752c0.382,0,0.71-0.042,0.984-0.126c0.277-0.083,0.506-0.198,0.685-0.345
		c0.177-0.146,0.312-0.317,0.396-0.515c0.086-0.197,0.129-0.413,0.129-0.644c0-0.232-0.039-0.436-0.119-0.609
		c-0.078-0.174-0.203-0.33-0.372-0.471c-0.172-0.139-0.391-0.271-0.659-0.396c-0.271-0.127-0.593-0.256-0.97-0.391
		c-0.493-0.177-0.908-0.362-1.246-0.561c-0.337-0.197-0.609-0.414-0.819-0.648c-0.209-0.233-0.357-0.492-0.45-0.772
		c-0.089-0.28-0.135-0.593-0.135-0.937c0-0.422,0.079-0.795,0.237-1.117c0.16-0.323,0.378-0.594,0.654-0.812
		c0.278-0.218,0.604-0.383,0.978-0.493c0.374-0.112,0.777-0.168,1.211-0.168c0.448,0,0.915,0.076,1.397,0.228
		c0.483,0.152,0.978,0.396,1.484,0.732l-0.536,1.018c-0.423-0.27-0.829-0.463-1.216-0.58c-0.389-0.119-0.757-0.18-1.104-0.18
		c-0.566,0-1.003,0.121-1.31,0.359c-0.305,0.238-0.459,0.568-0.459,0.992c0,0.236,0.033,0.439,0.098,0.605
		c0.065,0.166,0.17,0.316,0.318,0.448c0.15,0.133,0.343,0.253,0.582,0.36c0.238,0.111,0.534,0.225,0.888,0.346
		c0.615,0.209,1.112,0.42,1.486,0.633c0.375,0.215,0.666,0.438,0.87,0.668c0.204,0.234,0.34,0.481,0.407,0.745
		c0.067,0.265,0.101,0.557,0.101,0.876c0,0.459-0.078,0.873-0.233,1.239c-0.152,0.366-0.376,0.678-0.668,0.936
		c-0.291,0.259-0.648,0.454-1.073,0.593c-0.426,0.137-0.91,0.205-1.452,0.205c-0.423,0-0.873-0.066-1.358-0.197
		c-0.481-0.134-0.989-0.344-1.524-0.633l0.445-1.086c0.45,0.232,0.87,0.406,1.257,0.523
		C280.521,80.693,280.888,80.752,281.231,80.752z"/>
</g>
<path fill="#08181F" d="M283.854,61.188h-7.191l-8.373-13.066v-0.033l-8.34,13.1h-7.191l10.265-15.463
	c0.179-0.27,0.337-0.529,0.472-0.777c0.112-0.225,0.226-0.461,0.339-0.709c0.111-0.247,0.168-0.495,0.168-0.743
	c0-0.225-0.057-0.467-0.168-0.726c-0.113-0.259-0.227-0.501-0.339-0.726c-0.135-0.248-0.293-0.506-0.472-0.776l-9.791-13.505h6.852
	l8.206,11.547v0.033l8.204-11.58h6.854l-9.791,13.539c-0.181,0.269-0.338,0.529-0.473,0.776c-0.113,0.225-0.219,0.468-0.321,0.726
	c-0.101,0.259-0.151,0.501-0.151,0.727c0,0.247,0.051,0.494,0.151,0.742c0.103,0.247,0.208,0.485,0.321,0.709
	c0.135,0.247,0.292,0.506,0.473,0.776L283.854,61.188z"/>
<rect x="240.196" y="17.224" fill="#08181F" width="5.69" height="5.691"/>
<path fill="#08181F" d="M247.029,56.171c-0.021,0.001-0.042,0.001-0.049,0.001c-0.859,0.01-0.969-0.145-0.98-1.29V27.395h-5.691
	v27.359l0.043,1.228c0.021,0.455,0.062,0.89,0.129,1.306c0.113,0.781,0.366,1.498,0.774,2.104c0.419,0.645,1.041,1.143,1.754,1.465
	c0.754,0.34,1.651,0.473,2.69,0.473c0.547,0,1-0.012,1.409-0.065c0.307-0.034,0.959-0.094,1.468-0.184l0.793-0.15v-4.758H247.029z"
	/>
<path fill="#08181F" d="M233.389,56.434c-0.021,0.002-0.043,0.002-0.049,0.002c-0.859,0.01-0.97-0.145-0.98-1.282V17.613h-5.692
	v37.414l0.043,1.22c0.021,0.451,0.062,0.883,0.13,1.297c0.112,0.775,0.366,1.488,0.773,2.089c0.419,0.642,1.042,1.134,1.755,1.455
	c0.754,0.338,1.651,0.468,2.689,0.468c0.547,0,1-0.01,1.409-0.063c0.307-0.033,0.96-0.093,1.469-0.182l0.792-0.15v-4.726H233.389z"
	/>
<path fill="#08181F" d="M220.782,38.139c0-2.149-0.334-3.958-1.1-5.425c-0.733-1.396-1.7-2.527-2.904-3.318
	c-1.177-0.782-2.496-1.32-3.952-1.589c-1.387-0.27-2.784-0.412-4.173-0.412c-1.841,0-3.15,0.213-4.69,0.634
	c-1.555,0.417-2.939,1.082-4.129,1.989c-1.203,0.909-2.152,2.104-2.837,3.516c-0.539,1.107-0.895,2.352-1.088,3.719h5.617
	c0.26-1.553,0.88-2.615,1.839-3.34c1.296-0.963,2.607-1.481,4.811-1.481c1.051-0.007,2.026,0.081,2.923,0.244
	c0.849,0.159,1.575,0.438,2.189,0.833c0.581,0.384,1.036,0.879,1.381,1.548c0.31,0.631,0.509,1.51,0.509,2.67
	c0,0.741-0.098,1.287-0.245,1.619l-0.608,0.821c-0.26,0.192-0.605,0.353-1.089,0.449c-0.553,0.11-1.208,0.191-1.965,0.278
	c-2.026,0.243-3.619,0.488-5.558,0.739c-2.017,0.261-3.841,0.731-5.477,1.388c-1.689,0.677-3.084,1.697-4.133,3.032
	c-1.115,1.416-1.619,3.312-1.619,5.559c0,1.638,0.287,3.268,0.892,4.547c0.589,1.236,1.4,2.287,2.443,3.103
	c1.03,0.812,2.232,1.402,3.578,1.757c1.33,0.363,2.733,0.39,4.226,0.39c0.466-0.004,1.66-0.021,2.022-0.021
	c1.481,0,2.969,0.025,4.492-0.301c1.552-0.342,2.961-0.901,4.222-1.691c1.275-0.799,2.339-1.851,3.145-3.123
	c0.868-1.33,1.271-2.934,1.271-4.716c0-0.062-0.003-0.124-0.004-0.188l0.011,0.005V38.139z M215.177,45.759h-0.008v2.44
	c0,0.012,0,0.021,0,0.031l0,0v3.556c0,0.909-0.22,1.577-0.612,2.116c-0.457,0.627-1.015,1.12-1.736,1.539
	c-0.735,0.414-1.531,0.716-2.399,0.883c-0.896,0.189-5.996,0.143-6.737-0.086c-0.965-0.338-1.332-0.594-1.857-1.048
	c-0.538-0.445-0.956-0.968-1.278-1.59c-0.287-0.571-0.446-1.404-0.446-2.22c0.01-1.316,0.357-2.145,1.011-2.741
	c0.759-0.698,1.764-1.255,3.031-1.652c1.308-0.413,2.391-0.728,4.01-0.935c1.681-0.219,3.313-0.467,4.898-0.74
	c0.545-0.088,1.177-0.23,1.865-0.436l0.26-0.081V45.759z"/>
<path fill="#08181F" d="M190.095,47.562c-0.558-1.092-1.299-2.035-2.203-2.78c-0.896-0.74-1.913-1.331-3.043-1.776
	c-1.116-0.444-2.239-0.757-3.384-0.921l-4.896-1.115c-0.58-0.142-1.235-0.343-1.971-0.587c-0.688-0.229-1.309-0.525-1.872-0.889
	c-0.536-0.33-0.962-0.727-1.295-1.196c-0.281-0.393-0.449-0.865-0.449-1.534c0-0.843,0.19-1.478,0.499-1.967
	c0.349-0.545,0.808-0.973,1.399-1.315c0.619-0.367,1.293-0.63,2.049-0.79c0.785-0.161,1.563-0.242,2.312-0.242
	c0.99,0,1.92,0.114,2.766,0.351c0.849,0.229,1.566,0.57,2.19,1.057c0.624,0.464,1.097,1.039,1.477,1.77
	c0.245,0.484,0.416,1.042,0.515,1.671h5.662c-0.147-1.426-0.484-2.709-1.029-3.856c-0.651-1.339-1.539-2.479-2.662-3.4
	c-1.101-0.908-2.392-1.584-3.816-2.006c-1.423-0.424-2.944-0.643-4.56-0.643c-1.419,0-2.841,0.172-4.275,0.502
	c-1.453,0.342-2.775,0.867-3.974,1.598c-1.228,0.744-2.235,1.745-3.005,2.978c-0.809,1.276-1.185,2.789-1.185,4.461
	c0,1.411,0.229,2.654,0.754,3.705c0.488,1.011,1.183,1.883,2.068,2.584c0.846,0.676,1.822,1.229,2.927,1.671
	c1.064,0.43,2.227,0.807,3.488,1.136l4.824,1.073c0.787,0.184,1.574,0.416,2.351,0.681c0.742,0.253,1.395,0.563,1.943,0.93
	c0.521,0.339,0.92,0.743,1.216,1.238c0.271,0.428,0.427,0.991,0.427,1.773c0,0.915-0.221,1.586-0.615,2.126
	c-0.459,0.631-1.021,1.127-1.746,1.547c-0.736,0.414-1.539,0.719-2.408,0.888c-0.9,0.19-1.779,0.278-2.619,0.278
	c-2.324,0-4.166-0.584-5.662-1.715c-1.017-0.791-1.702-1.824-2.071-3.188H164.5c0.544,3.102,1.852,5.541,3.971,7.158
	c2.435,1.852,5.569,2.734,9.312,2.734c1.488,0,2.983-0.157,4.514-0.485c1.559-0.343,2.973-0.905,4.241-1.699
	c1.281-0.803,2.351-1.86,3.16-3.136c0.872-1.338,1.276-2.949,1.276-4.739C190.975,50.031,190.706,48.703,190.095,47.562z"/>
<rect x="150.673" y="17.224" fill="#08181F" width="5.691" height="5.691"/>
<path fill="#08181F" d="M157.394,56.336c-0.021,0.001-0.043,0.001-0.05,0.001c-0.859,0.011-0.968-0.144-0.979-1.281V27.407h-5.691
	v27.521l0.043,1.221c0.021,0.451,0.06,0.883,0.128,1.297c0.115,0.775,0.366,1.488,0.775,2.089c0.42,0.641,1.042,1.134,1.753,1.454
	c0.755,0.339,1.653,0.47,2.691,0.47c0.547,0,0.998-0.012,1.408-0.063c0.307-0.035,0.961-0.094,1.468-0.183l0.794-0.149v-4.727
	H157.394z"/>
<path fill="#08181F" d="M146.091,27.342c-1.503,0-3.012,0.16-4.557,0.493c-1.575,0.346-3.003,0.913-4.282,1.715
	c-1.293,0.81-2.372,1.877-3.19,3.167c-0.836,1.282-1.242,2.814-1.281,4.513h-0.01V61.4h5.674l0.013-24.133
	c0-0.923,0.223-1.602,0.623-2.146c0.462-0.637,1.028-1.137,1.761-1.562c0.743-0.417,1.554-0.725,2.433-0.896
	c0.909-0.192,1.796-0.28,2.646-0.28c0.078,0,0.216-0.001,0.381-0.001v-5.04C146.212,27.342,146.14,27.342,146.091,27.342z"/>
<path fill="#08181F" d="M122.62,50.083c-0.532,1.879-1.352,3.402-2.463,4.562c-1.318,1.374-3.105,2.06-5.361,2.06
	c-2.938,0-5.095-1.104-6.464-3.317s-2.054-4.938-2.054-8.175c0-3.218,0.483-5.922,1.451-8.114c1.488-3.378,3.966-5.068,7.43-5.068
	c2.536,0,4.379,0.659,5.525,1.978c0.761,0.873,1.334,1.896,1.733,3.064h5.47c-0.629-3.326-1.903-5.749-3.836-7.247
	c-2.284-1.772-5.249-2.658-8.893-2.658c-4.27,0-7.784,1.581-10.542,4.741c-2.759,3.162-4.138,7.581-4.138,13.259
	c0,4.632,1.26,8.492,3.775,11.583c2.518,3.092,5.89,4.637,10.118,4.637c3.766,0,6.856-0.992,9.271-2.976
	c2.207-1.812,3.648-4.595,4.344-8.328H122.62z"/>
<g id="simbolo_1_">
	
		<linearGradient id="SVGID_1_" gradientUnits="userSpaceOnUse" x1="39.6226" y1="-20.4287" x2="76.7091" y2="25.6917" gradientTransform="matrix(0.9981 -0.0616 0.0616 0.9981 10.8525 65.4776)">
		<stop  offset="0" style="stop-color:#07708F"/>
		<stop  offset="1" style="stop-color:#0091BB"/>
	</linearGradient>
	<path fill="url(#SVGID_1_)" d="M50.433,28.872c-4.552,3.648-7.28,8.24-8.344,12.673c-0.249,1.038-0.405,2.066-0.474,3.073
		c-0.007,0.117-0.021,0.336-0.03,0.576c0-0.084,0-0.167,0-0.25l-0.003,0.007c0.001,0.133-0.003,0.269-0.003,0.402
		c-0.001,0.163,0.011,0.384,0.011,0.445c0.026,1.398,0.107,2.745,0.253,4.018C44.695,74.49,67.431,90.706,79.67,81.802
		c1.113-0.81,1.944-1.726,2.53-2.74c0.392-0.676,0.673-1.396,0.855-2.155c2.394-9.975-12.355-26.75-20.857-42.235
		c-2.038-3.713-3.472-7.065-4.406-10.092C54.954,25.746,52.505,27.21,50.433,28.872z"/>
	
		<radialGradient id="SVGID_2_" cx="39.207" cy="-37.0449" r="36.5368" gradientTransform="matrix(0.9981 -0.0616 0.0616 0.9981 10.8525 65.4776)" gradientUnits="userSpaceOnUse">
		<stop  offset="0" style="stop-color:#01B7CB"/>
		<stop  offset="1" style="stop-color:#038DBB"/>
	</radialGradient>
	<path fill="url(#SVGID_2_)" d="M61.143,3.842c-0.166,0.164-0.336,0.294-0.512,0.388c-9.581,7.189-15.064,17.794-17.505,27.969
		c-1.102,4.591-1.584,9.091-1.547,13.153c0.031-1.236,0.199-2.516,0.51-3.807c1.063-4.433,3.792-9.025,8.344-12.673
		c2.072-1.662,4.521-3.125,7.359-4.292c0.001,0,0.003-0.001,0.003-0.001c6.996-2.872,18.733-6.773,20.814-13.638
		c0.077-0.254,0.145-0.507,0.207-0.759c0.405-1.688,0.435-3.305,0.109-4.733C77.691-0.011,71.307-2.712,61.143,3.842z"/>
	
		<linearGradient id="SVGID_3_" gradientUnits="userSpaceOnUse" x1="1610.813" y1="83.5371" x2="1647.9001" y2="129.6582" gradientTransform="matrix(-0.9981 0.0616 -0.0616 -0.9981 1647.0724 30.5897)">
		<stop  offset="0" style="stop-color:#07708F"/>
		<stop  offset="1" style="stop-color:#0091BB"/>
	</linearGradient>
	<path fill="url(#SVGID_3_)" d="M32.882,60.213c4.552-3.648,7.28-8.24,8.344-12.673c0.249-1.038,0.404-2.067,0.473-3.073
		c0.01-0.117,0.026-0.337,0.033-0.576c0,0.083-0.002,0.167-0.002,0.25l0.004-0.006c-0.001-0.135,0.002-0.272,0.002-0.403
		c0.003-0.163-0.01-0.383-0.011-0.443c-0.025-1.398-0.106-2.747-0.253-4.02C38.619,14.593,15.887-1.623,3.644,7.282
		C2.532,8.09,1.701,9.007,1.116,10.021c-0.393,0.677-0.673,1.397-0.856,2.158c-2.394,9.973,12.356,26.749,20.859,42.233
		c2.036,3.714,3.47,7.066,4.404,10.092C28.363,63.34,30.811,61.873,32.882,60.213z"/>
	
		<radialGradient id="SVGID_4_" cx="1610.3979" cy="66.9229" r="36.5371" gradientTransform="matrix(-0.9981 0.0616 -0.0616 -0.9981 1647.0724 30.5897)" gradientUnits="userSpaceOnUse">
		<stop  offset="0" style="stop-color:#01B7CB"/>
		<stop  offset="1" style="stop-color:#038DBB"/>
	</radialGradient>
	<path fill="url(#SVGID_4_)" d="M22.174,85.242c0.162-0.162,0.333-0.293,0.51-0.389c9.582-7.188,15.064-17.793,17.507-27.969
		c1.102-4.589,1.582-9.092,1.545-13.153c-0.031,1.236-0.2,2.516-0.51,3.808c-1.063,4.433-3.792,9.024-8.344,12.673
		c-2.071,1.66-4.52,3.127-7.359,4.291l0,0c-6.999,2.874-18.734,6.775-20.818,13.639C4.628,78.397,4.561,78.65,4.5,78.903
		c-0.406,1.688-0.434,3.304-0.111,4.733C5.625,89.095,12.009,91.797,22.174,85.242z"/>
</g>
</svg>
