<?xml version="1.0" encoding="utf-8"?>
<!-- Generator: Adobe Illustrator 16.0.0, SVG Export Plug-In . SVG Version: 6.00 Build 0)  -->
<!DOCTYPE svg PUBLIC "-//W3C//DTD SVG 1.1//EN" "http://www.w3.org/Graphics/SVG/1.1/DTD/svg11.dtd">
<svg version="1.1" id="Layer_1" xmlns="http://www.w3.org/2000/svg" xmlns:xlink="http://www.w3.org/1999/xlink" x="0px" y="0px"
	 width="284.742px" height="89.085px" viewBox="0 0 284.742 89.085" enable-background="new 0 0 284.742 89.085"
	 xml:space="preserve">
<g id="tagline_1_">
	<path fill="#FFFFFF" d="M106.608,71.957h1.431l-3.478,9.834h-1.435l-3.377-9.834h1.49l1.658,5.11
		c0.014,0.052,0.039,0.138,0.077,0.259c0.035,0.119,0.078,0.262,0.125,0.424c0.046,0.162,0.096,0.34,0.148,0.529
		c0.054,0.191,0.107,0.381,0.157,0.562c0.122,0.447,0.256,0.932,0.404,1.457h0.076c0.173-0.543,0.33-1.039,0.474-1.49
		c0.061-0.189,0.121-0.38,0.182-0.57c0.06-0.191,0.115-0.367,0.167-0.531c0.05-0.16,0.095-0.299,0.133-0.416
		c0.035-0.117,0.062-0.196,0.076-0.244L106.608,71.957z"/>
	<path fill="#FFFFFF" d="M112.268,81.791v-9.834h1.366v9.834H112.268z"/>
	<path fill="#FFFFFF" d="M119.14,81.791v-9.834h3.015c0.425,0,0.845,0.041,1.252,0.125c0.41,0.082,0.772,0.226,1.091,0.424
		c0.317,0.199,0.576,0.466,0.769,0.793c0.196,0.33,0.294,0.738,0.294,1.226c0,0.315-0.041,0.601-0.126,0.854
		c-0.083,0.252-0.204,0.479-0.359,0.682c-0.155,0.202-0.343,0.376-0.567,0.525c-0.222,0.147-0.473,0.274-0.752,0.383
		c0.372,0.086,0.665,0.199,0.882,0.338c0.215,0.138,0.384,0.305,0.508,0.502s0.211,0.424,0.264,0.684
		c0.054,0.258,0.104,0.549,0.151,0.879c0.046,0.326,0.103,0.691,0.167,1.092c0.065,0.402,0.173,0.847,0.32,1.33h-1.462
		c-0.099-0.508-0.174-0.965-0.227-1.371c-0.054-0.404-0.107-0.764-0.164-1.078c-0.056-0.313-0.122-0.582-0.199-0.809
		c-0.076-0.225-0.187-0.408-0.331-0.553c-0.143-0.145-0.329-0.25-0.556-0.318c-0.229-0.065-0.52-0.1-0.877-0.1h-1.728v4.229h-1.365
		V81.791z M120.496,76.525h1.617c0.283,0,0.548-0.033,0.794-0.098c0.247-0.064,0.46-0.17,0.644-0.312
		c0.184-0.144,0.328-0.332,0.433-0.566c0.104-0.233,0.156-0.521,0.156-0.858c0-0.353-0.067-0.63-0.202-0.834
		c-0.134-0.204-0.31-0.356-0.521-0.461c-0.215-0.104-0.452-0.169-0.714-0.194c-0.263-0.027-0.52-0.039-0.77-0.039h-1.437V76.525z"/>
	<path fill="#FFFFFF" d="M134.011,81.791h-1.358v-8.617h-3.052v-1.217h7.46v1.217h-3.05V81.791z"/>
	<path fill="#FFFFFF" d="M148.966,71.957v6.184c0,0.576-0.09,1.102-0.274,1.57c-0.184,0.472-0.441,0.873-0.777,1.209
		c-0.333,0.332-0.732,0.593-1.2,0.775c-0.467,0.184-0.979,0.275-1.542,0.275c-0.561,0-1.076-0.082-1.542-0.248
		c-0.467-0.165-0.87-0.408-1.204-0.73c-0.337-0.322-0.599-0.727-0.783-1.213c-0.187-0.484-0.279-1.047-0.279-1.688v-6.135h1.364
		v6.223c0,0.517,0.074,0.941,0.219,1.275s0.338,0.598,0.572,0.787c0.234,0.19,0.498,0.323,0.795,0.397
		c0.295,0.075,0.593,0.11,0.89,0.11c0.354,0,0.657-0.041,0.914-0.121c0.256-0.082,0.475-0.188,0.653-0.324
		c0.183-0.137,0.328-0.292,0.44-0.471c0.11-0.18,0.198-0.365,0.263-0.559c0.062-0.193,0.104-0.387,0.125-0.581
		c0.021-0.196,0.031-0.38,0.031-0.551v-6.188h1.335V71.957z"/>
	<path fill="#FFFFFF" d="M153.046,81.343l3.718-9.387h1.344l3.67,9.422v0.412h-1.314l-1.059-2.758h-4.062l-1.073,2.758h-1.224
		V81.343z M156.721,75.328l-0.927,2.508h3.169l-0.904-2.508l-0.662-1.882L156.721,75.328z"/>
	<path fill="#FFFFFF" d="M166.105,81.791v-9.834h1.373v8.58h4.205v1.254H166.105z"/>
	<path fill="#FFFFFF" d="M181.415,81.343l3.72-9.387h1.344l3.67,9.422v0.412h-1.314l-1.059-2.758h-4.062l-1.073,2.758h-1.226V81.343
		z M185.092,75.328l-0.927,2.508h3.169l-0.904-2.508l-0.662-1.882L185.092,75.328z"/>
	<path fill="#FFFFFF" d="M200.236,81.791h-5.76v-9.834h5.694v1.217h-4.329v2.92h4.088v1.219h-4.088v3.23h4.395V81.791z"/>
	<path fill="#FFFFFF" d="M207.342,80.751c0.381,0,0.709-0.041,0.987-0.125c0.274-0.084,0.503-0.198,0.681-0.346
		c0.18-0.146,0.312-0.316,0.399-0.515c0.083-0.197,0.127-0.413,0.127-0.644c0-0.232-0.039-0.437-0.119-0.609
		c-0.08-0.174-0.203-0.33-0.373-0.471c-0.17-0.14-0.39-0.271-0.66-0.396c-0.268-0.127-0.591-0.256-0.969-0.391
		c-0.49-0.178-0.907-0.362-1.243-0.562c-0.338-0.196-0.611-0.414-0.818-0.647c-0.213-0.233-0.359-0.492-0.451-0.772
		c-0.09-0.28-0.135-0.593-0.135-0.937c0-0.422,0.08-0.795,0.235-1.117c0.158-0.323,0.377-0.594,0.656-0.812
		c0.276-0.218,0.603-0.383,0.976-0.492c0.374-0.112,0.777-0.168,1.209-0.168c0.45,0,0.918,0.076,1.399,0.228
		c0.483,0.151,0.978,0.396,1.483,0.731l-0.537,1.019c-0.422-0.271-0.828-0.463-1.213-0.58c-0.391-0.119-0.759-0.181-1.106-0.181
		c-0.565,0-1.002,0.121-1.31,0.359c-0.306,0.238-0.459,0.568-0.459,0.992c0,0.236,0.033,0.439,0.099,0.605s0.172,0.315,0.319,0.447
		c0.147,0.133,0.342,0.254,0.58,0.36c0.238,0.11,0.534,0.226,0.887,0.347c0.617,0.209,1.113,0.42,1.488,0.633
		c0.375,0.215,0.666,0.438,0.869,0.668c0.204,0.233,0.34,0.48,0.406,0.744c0.066,0.266,0.102,0.558,0.102,0.877
		c0,0.459-0.078,0.873-0.231,1.238c-0.154,0.366-0.377,0.678-0.668,0.936c-0.292,0.26-0.65,0.455-1.074,0.594
		c-0.425,0.137-0.907,0.205-1.451,0.205c-0.424,0-0.876-0.066-1.358-0.197c-0.482-0.134-0.99-0.344-1.525-0.633l0.447-1.086
		c0.447,0.232,0.867,0.406,1.256,0.523C206.632,80.693,206.999,80.751,207.342,80.751z"/>
	<path fill="#FFFFFF" d="M219.061,81.791h-1.357v-8.617h-3.051v-1.217h7.459v1.217h-3.051V81.791L219.061,81.791z"/>
	<path fill="#FFFFFF" d="M233.736,81.791h-1.37v-4.457h-4.464v4.457h-1.371v-9.848h1.371v4.148h4.464v-4.148h1.37V81.791z"/>
	<path fill="#FFFFFF" d="M245.002,81.791h-5.76v-9.834h5.697v1.217h-4.332v2.92h4.086v1.219h-4.086v3.23h4.395V81.791z"/>
	<path fill="#FFFFFF" d="M253.35,81.791h-1.358v-8.617h-3.05v-1.217h7.457v1.217h-3.049V81.791L253.35,81.791z"/>
	<path fill="#FFFFFF" d="M260.818,81.791v-9.834h1.367v9.834H260.818z"/>
	<path fill="#FFFFFF" d="M274.452,81.141c-0.556,0.284-1.086,0.493-1.589,0.627c-0.502,0.135-0.975,0.203-1.42,0.203
		c-0.492,0-0.941-0.066-1.348-0.197c-0.406-0.134-0.771-0.315-1.091-0.549c-0.319-0.231-0.603-0.509-0.843-0.825
		c-0.241-0.316-0.439-0.663-0.598-1.033c-0.159-0.371-0.276-0.763-0.356-1.175c-0.078-0.409-0.118-0.823-0.118-1.241
		c0-0.434,0.04-0.861,0.123-1.285c0.079-0.426,0.201-0.828,0.364-1.215c0.163-0.386,0.364-0.742,0.61-1.074
		c0.242-0.328,0.525-0.613,0.845-0.854c0.321-0.242,0.68-0.431,1.075-0.567c0.397-0.139,0.834-0.205,1.308-0.205
		c0.319,0,0.63,0.037,0.931,0.111c0.299,0.074,0.578,0.193,0.838,0.357c0.262,0.162,0.493,0.379,0.7,0.646
		c0.206,0.268,0.373,0.592,0.496,0.973l-1.217,0.293c-0.07-0.228-0.165-0.416-0.282-0.564c-0.119-0.148-0.252-0.268-0.4-0.355
		c-0.147-0.088-0.312-0.149-0.492-0.188c-0.176-0.038-0.361-0.057-0.551-0.057c-0.471,0-0.886,0.111-1.246,0.328
		c-0.357,0.218-0.66,0.511-0.906,0.877c-0.247,0.365-0.434,0.789-0.559,1.27s-0.188,0.98-0.188,1.499
		c0,0.478,0.062,0.946,0.181,1.401c0.122,0.457,0.307,0.863,0.557,1.223c0.252,0.355,0.566,0.645,0.947,0.861
		c0.383,0.219,0.832,0.328,1.354,0.328c0.347,0,0.722-0.058,1.122-0.17c0.397-0.115,0.829-0.285,1.295-0.513L274.452,81.141z"/>
	<path fill="#FFFFFF" d="M281.23,80.751c0.383,0,0.711-0.041,0.984-0.125c0.277-0.084,0.506-0.198,0.686-0.346
		c0.177-0.146,0.312-0.316,0.396-0.515c0.086-0.197,0.129-0.413,0.129-0.644c0-0.232-0.039-0.437-0.118-0.609
		c-0.078-0.174-0.203-0.33-0.373-0.471c-0.172-0.14-0.391-0.271-0.658-0.396c-0.271-0.127-0.594-0.256-0.971-0.391
		c-0.492-0.178-0.908-0.362-1.246-0.562c-0.336-0.196-0.608-0.414-0.818-0.647c-0.209-0.233-0.357-0.492-0.45-0.772
		c-0.089-0.28-0.136-0.593-0.136-0.937c0-0.422,0.08-0.795,0.238-1.117c0.159-0.323,0.377-0.594,0.653-0.812
		c0.278-0.218,0.604-0.383,0.978-0.492c0.375-0.112,0.777-0.168,1.211-0.168c0.449,0,0.916,0.076,1.397,0.228
		c0.483,0.151,0.978,0.396,1.484,0.731l-0.536,1.019c-0.424-0.271-0.829-0.463-1.217-0.58c-0.389-0.119-0.756-0.181-1.104-0.181
		c-0.566,0-1.003,0.121-1.31,0.359c-0.306,0.238-0.46,0.568-0.46,0.992c0,0.236,0.033,0.439,0.099,0.605s0.17,0.315,0.317,0.447
		c0.15,0.133,0.344,0.254,0.582,0.36c0.238,0.11,0.535,0.226,0.889,0.347c0.615,0.209,1.111,0.42,1.486,0.633
		c0.375,0.215,0.666,0.438,0.869,0.668c0.205,0.233,0.34,0.48,0.408,0.744c0.066,0.266,0.1,0.558,0.1,0.877
		c0,0.459-0.077,0.873-0.232,1.238c-0.152,0.366-0.376,0.678-0.668,0.936c-0.291,0.26-0.648,0.455-1.072,0.594
		c-0.427,0.137-0.91,0.205-1.453,0.205c-0.422,0-0.873-0.066-1.357-0.197c-0.48-0.134-0.989-0.344-1.523-0.633l0.444-1.086
		c0.45,0.232,0.87,0.406,1.257,0.523C280.521,80.693,280.889,80.751,281.23,80.751z"/>
</g>
<path fill="#FFFFFF" d="M283.854,61.188h-7.19l-8.373-13.065v-0.033l-8.34,13.1h-7.191l10.265-15.463
	c0.18-0.27,0.338-0.529,0.473-0.777c0.111-0.225,0.227-0.461,0.339-0.709c0.11-0.247,0.168-0.495,0.168-0.743
	c0-0.225-0.058-0.467-0.168-0.726c-0.112-0.259-0.228-0.501-0.339-0.726c-0.135-0.248-0.293-0.506-0.473-0.776l-9.791-13.505h6.853
	l8.206,11.547v0.033l8.204-11.58h6.854l-9.791,13.539c-0.182,0.269-0.338,0.529-0.474,0.776c-0.112,0.225-0.219,0.468-0.321,0.726
	c-0.101,0.259-0.15,0.501-0.15,0.727c0,0.247,0.051,0.494,0.15,0.742c0.104,0.247,0.209,0.485,0.321,0.709
	c0.136,0.247,0.292,0.507,0.474,0.776L283.854,61.188z"/>
<rect x="240.195" y="17.224" fill="#FFFFFF" width="5.691" height="5.691"/>
<path fill="#FFFFFF" d="M247.029,56.171c-0.021,0-0.043,0-0.049,0c-0.859,0.011-0.969-0.145-0.98-1.289V27.395h-5.691v27.358
	l0.043,1.229c0.021,0.455,0.062,0.891,0.129,1.307c0.113,0.78,0.367,1.498,0.774,2.104c0.419,0.645,1.041,1.143,1.754,1.465
	c0.755,0.34,1.651,0.473,2.69,0.473c0.547,0,1-0.012,1.408-0.064c0.308-0.034,0.959-0.094,1.469-0.184l0.793-0.15v-4.758h-2.34
	V56.171z"/>
<path fill="#FFFFFF" d="M233.389,56.434c-0.021,0.002-0.043,0.002-0.049,0.002c-0.859,0.01-0.97-0.146-0.98-1.282V17.613h-5.691
	v37.414l0.043,1.221c0.021,0.451,0.062,0.883,0.13,1.297c0.112,0.774,0.366,1.488,0.773,2.088c0.419,0.643,1.042,1.135,1.755,1.455
	c0.754,0.338,1.65,0.469,2.689,0.469c0.547,0,1-0.01,1.408-0.062c0.307-0.033,0.961-0.094,1.469-0.183l0.793-0.149v-4.727
	L233.389,56.434L233.389,56.434z"/>
<path fill="#FFFFFF" d="M220.782,38.139c0-2.149-0.334-3.958-1.101-5.425c-0.732-1.396-1.699-2.527-2.904-3.318
	c-1.176-0.782-2.495-1.32-3.951-1.589c-1.387-0.27-2.784-0.412-4.174-0.412c-1.84,0-3.149,0.213-4.689,0.634
	c-1.555,0.417-2.939,1.082-4.129,1.989c-1.203,0.909-2.152,2.104-2.837,3.516c-0.539,1.107-0.896,2.352-1.088,3.719h5.616
	c0.261-1.553,0.881-2.615,1.84-3.34c1.296-0.963,2.607-1.481,4.811-1.481c1.051-0.007,2.026,0.081,2.924,0.244
	c0.849,0.159,1.574,0.438,2.188,0.833c0.581,0.384,1.036,0.879,1.381,1.548c0.31,0.631,0.509,1.51,0.509,2.67
	c0,0.741-0.098,1.287-0.244,1.619l-0.608,0.821c-0.261,0.192-0.604,0.353-1.089,0.449c-0.553,0.11-1.209,0.191-1.965,0.278
	c-2.026,0.243-3.619,0.488-5.559,0.739c-2.018,0.261-3.841,0.731-5.477,1.388c-1.689,0.677-3.084,1.697-4.133,3.032
	c-1.115,1.415-1.619,3.312-1.619,5.559c0,1.638,0.287,3.269,0.892,4.548c0.589,1.235,1.399,2.286,2.442,3.103
	c1.031,0.812,2.232,1.401,3.578,1.757c1.33,0.363,2.733,0.391,4.227,0.391c0.466-0.005,1.66-0.021,2.021-0.021
	c1.481,0,2.969,0.025,4.492-0.301c1.553-0.342,2.961-0.901,4.223-1.691c1.274-0.799,2.339-1.852,3.145-3.123
	c0.868-1.33,1.271-2.934,1.271-4.716c0-0.062-0.004-0.124-0.004-0.188l0.011,0.006V38.139z M215.177,45.759h-0.008v2.439
	c0,0.012,0,0.021,0,0.031l0,0v3.557c0,0.908-0.22,1.576-0.612,2.115c-0.457,0.627-1.015,1.12-1.736,1.539
	c-0.734,0.414-1.53,0.717-2.398,0.883c-0.896,0.189-5.996,0.143-6.736-0.086c-0.965-0.338-1.332-0.594-1.857-1.048
	c-0.538-0.444-0.956-0.968-1.278-1.59c-0.286-0.571-0.446-1.404-0.446-2.22c0.011-1.316,0.357-2.146,1.012-2.741
	c0.759-0.698,1.764-1.255,3.031-1.652c1.308-0.413,2.391-0.728,4.01-0.935c1.681-0.219,3.312-0.467,4.898-0.74
	c0.545-0.088,1.176-0.23,1.864-0.436l0.261-0.081v0.964H215.177z"/>
<path fill="#FFFFFF" d="M190.096,47.562c-0.559-1.092-1.3-2.035-2.203-2.78c-0.896-0.74-1.914-1.331-3.043-1.776
	c-1.117-0.444-2.24-0.757-3.385-0.921l-4.896-1.115c-0.58-0.142-1.234-0.343-1.971-0.587c-0.688-0.229-1.309-0.525-1.871-0.889
	c-0.537-0.33-0.963-0.727-1.295-1.196c-0.281-0.393-0.449-0.865-0.449-1.534c0-0.843,0.189-1.478,0.498-1.967
	c0.35-0.545,0.809-0.973,1.399-1.315c0.619-0.367,1.293-0.63,2.05-0.79c0.784-0.161,1.562-0.242,2.312-0.242
	c0.989,0,1.92,0.114,2.766,0.351c0.849,0.229,1.566,0.57,2.19,1.057c0.623,0.464,1.097,1.039,1.477,1.77
	c0.245,0.484,0.416,1.042,0.516,1.671h5.662c-0.147-1.426-0.484-2.709-1.029-3.856c-0.651-1.339-1.539-2.479-2.662-3.4
	c-1.102-0.908-2.393-1.584-3.816-2.006c-1.423-0.424-2.943-0.643-4.56-0.643c-1.419,0-2.841,0.172-4.275,0.502
	c-1.452,0.342-2.774,0.867-3.974,1.598c-1.229,0.744-2.235,1.745-3.006,2.978c-0.809,1.276-1.184,2.789-1.184,4.461
	c0,1.411,0.229,2.654,0.754,3.705c0.487,1.011,1.183,1.883,2.067,2.584c0.847,0.676,1.822,1.229,2.927,1.671
	c1.064,0.431,2.227,0.808,3.488,1.136l4.824,1.073c0.787,0.185,1.574,0.416,2.351,0.681c0.742,0.254,1.396,0.563,1.943,0.93
	c0.521,0.34,0.92,0.744,1.216,1.238c0.271,0.428,0.427,0.991,0.427,1.773c0,0.915-0.221,1.586-0.614,2.126
	c-0.459,0.631-1.021,1.127-1.746,1.547c-0.736,0.414-1.539,0.72-2.408,0.888c-0.9,0.19-1.779,0.278-2.619,0.278
	c-2.324,0-4.166-0.584-5.662-1.715c-1.018-0.791-1.702-1.824-2.07-3.188H164.5c0.544,3.103,1.852,5.541,3.971,7.158
	c2.436,1.852,5.569,2.734,9.312,2.734c1.488,0,2.982-0.157,4.514-0.485c1.559-0.343,2.973-0.905,4.241-1.698
	c1.28-0.804,2.351-1.861,3.16-3.137c0.872-1.338,1.276-2.949,1.276-4.738C190.975,50.031,190.706,48.703,190.096,47.562z"/>
<rect x="150.673" y="17.224" fill="#FFFFFF" width="5.69" height="5.691"/>
<path fill="#FFFFFF" d="M157.395,56.335c-0.021,0.002-0.043,0.002-0.051,0.002c-0.859,0.011-0.968-0.145-0.979-1.281V27.407h-5.691
	v27.521l0.043,1.221c0.021,0.451,0.061,0.884,0.129,1.297c0.114,0.775,0.365,1.488,0.774,2.089c0.42,0.641,1.042,1.135,1.753,1.455
	c0.755,0.338,1.652,0.469,2.691,0.469c0.547,0,0.998-0.012,1.408-0.062c0.307-0.035,0.961-0.094,1.467-0.184l0.795-0.148v-4.727
	h-2.34V56.335z"/>
<path fill="#FFFFFF" d="M146.091,27.342c-1.503,0-3.012,0.16-4.557,0.493c-1.575,0.346-3.003,0.913-4.282,1.715
	c-1.293,0.81-2.372,1.877-3.19,3.167c-0.836,1.282-1.242,2.814-1.281,4.513h-0.01V61.4h5.674l0.013-24.133
	c0-0.923,0.223-1.602,0.623-2.146c0.462-0.637,1.028-1.137,1.761-1.562c0.743-0.417,1.554-0.725,2.434-0.896
	c0.908-0.192,1.795-0.28,2.646-0.28c0.078,0,0.216-0.001,0.381-0.001v-5.04C146.212,27.342,146.141,27.342,146.091,27.342z"/>
<path fill="#FFFFFF" d="M122.62,50.083c-0.532,1.879-1.352,3.401-2.463,4.562c-1.318,1.374-3.105,2.06-5.361,2.06
	c-2.938,0-5.095-1.104-6.464-3.316s-2.054-4.938-2.054-8.176c0-3.217,0.483-5.921,1.451-8.113c1.488-3.378,3.966-5.068,7.43-5.068
	c2.536,0,4.379,0.659,5.525,1.978c0.761,0.873,1.334,1.896,1.733,3.064h5.47c-0.629-3.326-1.903-5.749-3.836-7.247
	c-2.284-1.772-5.249-2.658-8.893-2.658c-4.27,0-7.784,1.581-10.542,4.741c-2.759,3.162-4.138,7.581-4.138,13.258
	c0,4.633,1.26,8.492,3.775,11.584c2.518,3.092,5.89,4.637,10.118,4.637c3.766,0,6.856-0.992,9.271-2.977
	c2.207-1.812,3.648-4.595,4.344-8.328H122.62L122.62,50.083z"/>
<g id="simbolo_1_">
	
		<linearGradient id="SVGID_1_" gradientUnits="userSpaceOnUse" x1="275.6953" y1="-246.8696" x2="312.7811" y2="-292.9892" gradientTransform="matrix(0.9981 -0.0616 -0.0616 -0.9981 -241.2358 -186.7692)">
		<stop  offset="0" style="stop-color:#07708F"/>
		<stop  offset="1" style="stop-color:#0091BB"/>
	</linearGradient>
	<path fill="url(#SVGID_1_)" d="M50.433,28.872c-4.552,3.648-7.28,8.24-8.344,12.673c-0.249,1.038-0.405,2.066-0.474,3.073
		c-0.007,0.117-0.021,0.336-0.03,0.576c0-0.084,0-0.167,0-0.25l-0.003,0.007c0.001,0.132-0.003,0.269-0.003,0.402
		c-0.001,0.163,0.011,0.384,0.011,0.445c0.026,1.397,0.107,2.744,0.253,4.018C44.695,74.49,67.431,90.707,79.67,81.802
		c1.113-0.811,1.944-1.727,2.53-2.74c0.392-0.676,0.673-1.396,0.855-2.154c2.394-9.976-12.355-26.75-20.857-42.236
		c-2.038-3.713-3.472-7.065-4.406-10.092C54.954,25.746,52.505,27.21,50.433,28.872z"/>
	
		<radialGradient id="SVGID_2_" cx="275.2783" cy="-230.2529" r="36.5372" gradientTransform="matrix(0.9981 -0.0616 -0.0616 -0.9981 -241.2358 -186.7692)" gradientUnits="userSpaceOnUse">
		<stop  offset="0" style="stop-color:#01B7CB"/>
		<stop  offset="1" style="stop-color:#038DBB"/>
	</radialGradient>
	<path fill="url(#SVGID_2_)" d="M61.143,3.842c-0.166,0.164-0.336,0.294-0.512,0.388c-9.581,7.189-15.064,17.794-17.505,27.969
		c-1.102,4.591-1.584,9.091-1.547,13.153c0.031-1.236,0.199-2.516,0.51-3.807c1.063-4.433,3.792-9.025,8.344-12.673
		c2.072-1.662,4.521-3.125,7.359-4.292c0.001,0,0.003-0.001,0.003-0.001c6.996-2.872,18.733-6.773,20.814-13.638
		c0.077-0.254,0.145-0.507,0.207-0.759c0.405-1.688,0.435-3.305,0.109-4.733C77.691-0.011,71.307-2.712,61.143,3.842z"/>
	
		<linearGradient id="SVGID_3_" gradientUnits="userSpaceOnUse" x1="1564.4834" y1="369.8462" x2="1601.5704" y2="323.7253" gradientTransform="matrix(-0.9981 0.0616 0.0616 0.9981 1572.9038 -419.0775)">
		<stop  offset="0" style="stop-color:#07708F"/>
		<stop  offset="1" style="stop-color:#0091BB"/>
	</linearGradient>
	<path fill="url(#SVGID_3_)" d="M32.882,60.212c4.552-3.647,7.28-8.239,8.344-12.672c0.249-1.039,0.404-2.067,0.473-3.074
		c0.01-0.117,0.026-0.337,0.033-0.576c0,0.083-0.002,0.167-0.002,0.25l0.004-0.006c-0.001-0.135,0.002-0.272,0.002-0.403
		c0.003-0.163-0.01-0.383-0.011-0.443c-0.025-1.398-0.106-2.747-0.253-4.02C38.619,14.593,15.887-1.623,3.644,7.282
		C2.532,8.09,1.701,9.007,1.116,10.021c-0.393,0.677-0.673,1.397-0.856,2.158c-2.394,9.973,12.356,26.749,20.859,42.232
		c2.036,3.715,3.47,7.066,4.404,10.092C28.363,63.339,30.811,61.873,32.882,60.212z"/>
	
		<radialGradient id="SVGID_4_" cx="1564.0703" cy="386.4585" r="36.5369" gradientTransform="matrix(-0.9981 0.0616 0.0616 0.9981 1572.9038 -419.0775)" gradientUnits="userSpaceOnUse">
		<stop  offset="0" style="stop-color:#01B7CB"/>
		<stop  offset="1" style="stop-color:#038DBB"/>
	</radialGradient>
	<path fill="url(#SVGID_4_)" d="M22.174,85.242c0.162-0.162,0.333-0.293,0.51-0.389c9.582-7.188,15.064-17.793,17.507-27.969
		c1.102-4.59,1.582-9.092,1.545-13.153c-0.031,1.236-0.2,2.517-0.51,3.808c-1.063,4.434-3.792,9.024-8.344,12.674
		c-2.071,1.66-4.52,3.127-7.359,4.291l0,0c-6.999,2.873-18.734,6.774-20.818,13.639C4.628,78.397,4.561,78.65,4.5,78.903
		c-0.406,1.688-0.434,3.304-0.111,4.733C5.625,89.095,12.009,91.796,22.174,85.242z"/>
</g>
</svg>
